#!OML:ASF H:\Terrain\Patient Classification 1\Walking\steve\steve.ASF
:FULLY-SPECIFIED
:DEGREES
182
root 7.92293 15.751 8.70128 16.0963 -8.79674 -2.44444
lowerback 1.13078 7.06754 -4.59066
upperback -2.1597 9.19661 -4.4996
thorax -2.83814 4.63409 -2.4393
lowerneck -12.0809 -3.57162 -4.42264
upperneck 11.4484 -5.12295 7.77138
head 5.76153 -2.12357 2.73431
rclavicle -9.93923e-015 2.38542e-014
rhumerus -24.199 14.2957 -85.7467
rradius 45.2574
rwrist -14.8831
rhand -18.8811 -40.4157
rfingers 7.12502
rthumb 7.41988 -70.2656
lclavicle -9.93923e-015 2.38542e-014
lhumerus -19.3236 26.5869 66.5271
lradius 16.6306
lwrist -9.05572
lhand -22.3424 -13.5975
lfingers 7.12502
lthumb 4.07813 16.3432
rfemur -16.2321 1.16918 22.1351
rtibia 60.6037
rfoot -17.437 -2.53348
rtoes -21.0785
lfemur -44.4969 7.46193 -23.7359
ltibia 53.9005
lfoot -23.5899 -5.8131
ltoes 0.0999193
183
root 7.94155 15.8257 8.91695 15.7043 -8.53526 -2.41558
lowerback 1.27553 6.80905 -4.48028
upperback -2.00887 8.85579 -4.33268
thorax -2.77326 4.4616 -2.3191
lowerneck -12.0127 -3.46057 -4.42627
upperneck 11.5811 -5.00904 7.96019
head 5.78954 -2.05387 2.80654
rclavicle 3.18055e-015 1.90833e-014
rhumerus -26.1369 13.7989 -86.8355
rradius 44.3464
rwrist -14.9173
rhand -19.441 -39.4375
rfingers 7.12502
rthumb 6.87946 -69.3057
lclavicle 3.18055e-015 1.90833e-014
lhumerus -16.407 25.0417 69.3148
lradius 17.305
lwrist -7.59091
lhand -23.1878 -12.2388
lfingers 7.12502
lthumb 3.26171 17.716
rfemur -17.9736 0.622487 22.5075
rtibia 61.2921
rfoot -18.7651 -3.44605
rtoes -22.0514
lfemur -42.4299 7.30569 -23.7602
ltibia 52.4677
lfoot -23.5191 -5.6526
ltoes -0.916594
184
root 7.95554 15.9123 9.14013 15.2772 -8.78673 -2.16786
lowerback 1.45668 6.67369 -4.80745
upperback -1.99001 8.65253 -4.2602
thorax -2.91608 4.36631 -2.08739
lowerneck -11.7722 -3.33228 -4.17703
upperneck 11.7401 -4.88065 7.85756
head 5.78131 -1.99049 2.74779
rclavicle -3.29983e-014 6.20208e-014
rhumerus -28.1478 12.8661 -87.8086
rradius 43.1429
rwrist -14.0659
rhand -18.1258 -37.8979
rfingers 7.12502
rthumb 8.14894 -67.7207
lclavicle -3.29983e-014 6.20208e-014
lhumerus -13.9455 22.8572 71.6683
lradius 18.13
lwrist -5.24216
lhand -23.9735 -11.5358
lfingers 7.12502
lthumb 2.50293 18.4293
rfemur -19.6964 0.822796 22.4825
rtibia 61.841
rfoot -20.1572 -3.09905
rtoes -18.5742
lfemur -40.2792 7.3374 -23.9524
ltibia 50.8961
lfoot -23.4746 -5.64843
ltoes 0.0163474
185
root 7.97162 15.9794 9.38052 14.65 -8.53137 -1.60232
lowerback 1.55382 6.32991 -5.17635
upperback -1.89151 8.17973 -4.2269
thorax -2.92399 4.13607 -1.8394
lowerneck -11.6047 -3.10251 -3.75682
upperneck 12.0543 -4.62136 7.55173
head 5.81758 -1.86581 2.6075
rclavicle -1.43523e-013 3.97569e-015
rhumerus -30.3988 12.2057 -88.7742
rradius 42.028
rwrist -13.6709
rhand -18.9013 -35.5815
rfingers 7.12502
rthumb 7.40042 -65.432
lclavicle -1.43523e-013 3.97569e-015
lhumerus -11.7267 21.9958 73.3842
lradius 18.6427
lwrist -3.27311
lhand -23.0033 -13.113
lfingers 7.12502
lthumb 3.43995 16.839
rfemur -20.9121 0.348034 22.149
rtibia 62.1473
rfoot -21.2813 -2.41682
rtoes -16.0015
lfemur -37.6779 6.92815 -24.4573
ltibia 49.3725
lfoot -23.6714 -6.19337
ltoes 1.91499
186
root 7.9931 16.0394 9.63463 13.9814 -8.19367 -1.17166
lowerback 1.31869 5.97761 -5.20096
upperback -1.55888 7.74924 -4.16864
thorax -2.45393 3.91484 -1.68959
lowerneck -11.4173 -2.8418 -3.71205
upperneck 12.0941 -4.29168 7.62458
head 5.77897 -1.7017 2.65457
rclavicle 1.25234e-014 -6.36111e-015
rhumerus -32.34 11.5308 -89.5336
rradius 41.0191
rwrist -13.4675
rhand -19.996 -34.9747
rfingers 7.12502
rthumb 6.34369 -64.8597
lclavicle 1.25234e-014 -6.36111e-015
lhumerus -9.14821 21.6143 75.092
lradius 18.972
lwrist -1.49387
lhand -21.4857 -15.2625
lfingers 7.12502
lthumb 4.9054 14.6608
rfemur -21.9753 -0.262964 21.9519
rtibia 62.3801
rfoot -22.2362 -1.9118
rtoes -15.3354
lfemur -35.0671 6.45948 -24.8279
ltibia 47.9757
lfoot -23.7775 -6.41715
ltoes 2.02886
